<svg width="30" height="30" viewBox="0 0 30 30" fill="none" xmlns="http://www.w3.org/2000/svg">
<path fill-rule="evenodd" clip-rule="evenodd" d="M7.35577 0.735577V1.47115H9.51923H11.6827V2.20673V2.94231H13.1538H14.625V3.67788V4.41346H15.3606H16.0962V5.88808V7.36278L16.8101 7.3376L17.524 7.3125L17.5478 5.86298L17.5715 4.41346H16.8338H16.0962V3.67788V2.94231H15.3606H14.625V2.20673V1.47115H13.1538H11.6827V0.735577V0H9.51923H7.35577V0.735577ZM4.41346 2.20673V2.94231H3.67788H2.94231V3.67788V4.41346H2.20465H1.467L1.49071 5.86298L1.51442 7.3125L1.94686 7.33976C2.18475 7.35473 2.50598 7.34322 2.6608 7.31423L2.94231 7.26136V5.84091V4.42047L3.65625 4.39529L4.37019 4.37019L4.39529 3.65625L4.42047 2.94231H5.84481C7.45771 2.94231 7.28057 3.03637 7.31215 2.16346C7.33881 1.42711 7.43279 1.47115 5.83555 1.47115H4.41346V2.20673ZM0 9.51923V11.6827H0.735577H1.47115V13.1538V14.625H2.20673H2.94231V15.3606V16.0962H3.67788H4.41346V16.7832V17.4701L4.80574 17.529C5.02148 17.5613 5.32004 17.5634 5.46923 17.5336C5.61842 17.5037 6.1039 17.5048 6.54811 17.5361L7.35577 17.5928V18.2724V18.9519H9.51923H11.6827V18.2596V17.5673H9.52849C7.06561 17.5673 7.26923 17.646 7.26923 16.6948V16.0962H5.84135H4.41346V15.3606V14.625H3.67788H2.94231V13.1538V11.6827H2.20673H1.47115V9.51923V7.35577H0.735577H0V9.51923ZM17.5673 9.51923V11.6827H18.2596H18.9519V9.51923V7.35577H18.2596H17.5673V9.51923ZM16.0962 13.1504V14.625H15.3606H14.625V15.3606V16.0962H13.1504H11.6757L11.7009 16.8101L11.726 17.524H13.1538H14.5817L14.6068 16.8101L14.632 16.0962H15.3606H16.0891L16.1143 16.8101L16.1394 17.524L16.8534 17.5491L17.5673 17.5743V18.2631V18.9519H18.2596H18.9519V18.2596V17.5673H18.2596H17.5673V16.8317V16.0962H16.8317H16.0962V15.3606V14.625H16.7846H17.4729L17.5242 14.3437C17.5524 14.1891 17.5639 13.5368 17.5497 12.8942L17.524 11.726L16.8101 11.7009L16.0962 11.6757V13.1504ZM20.4914 18.2812L20.4663 18.9952L19.7524 19.0203L19.0385 19.0455V19.7308V20.4161L18.3245 20.4412L17.6106 20.4663L17.5855 21.1767L17.5604 21.8871L18.2778 21.9123L18.9952 21.9375L19.0203 22.648L19.0454 23.3585L19.7559 23.3836L20.4663 23.4087L20.4773 24.0144C20.4834 24.3476 20.4931 24.6689 20.499 24.7284C20.5065 24.805 20.7114 24.8365 21.2019 24.8365H21.8942V25.5725V26.3084L22.1322 26.2922C22.2631 26.2833 22.5941 26.2832 22.8678 26.2919L23.3654 26.3077V26.9965V27.6853L24.0793 27.7105L24.7933 27.7356L24.8365 28.4712L24.8798 29.2067L25.4856 29.2092C25.8188 29.2106 26.1303 29.2005 26.1779 29.1867C26.2267 29.1725 26.2595 28.8891 26.2531 28.537C26.2469 28.1934 26.2618 27.86 26.2864 27.7961C26.32 27.7085 26.5049 27.6866 27.0333 27.7076L27.7356 27.7356L27.7607 27.0252L27.7858 26.3149L28.453 26.2896L29.1202 26.2644L29.1453 25.5505L29.1705 24.8365H28.4782H27.7859L27.7607 24.1226L27.7356 23.4087L27.0216 23.3836L26.3077 23.3584L26.3067 22.9509C26.3062 22.7266 26.2816 22.3973 26.2521 22.2187L26.1985 21.8942H25.5175H24.8365V21.2054V20.5166L24.1226 20.4914L23.4087 20.4663L23.3836 19.7559L23.3585 19.0454L22.648 19.0203L21.9375 18.9952L21.9124 18.2812L21.8872 17.5673H21.2019H20.5166L20.4914 18.2812Z" fill="black"/>
</svg>
